<svg id="visual" viewBox="0 0 960 150" width="960" height="150" xmlns="http://www.w3.org/2000/svg" xmlns:xlink="http://www.w3.org/1999/xlink" version="1.1"><rect x="0" y="0" width="960" height="300" fill="#1d4ed8"></rect><path d="M0 66L10 71.2C20 76.3 40 86.7 60 87C80 87.3 100 77.7 120 69C140 60.3 160 52.7 180 50.5C200 48.3 220 51.7 240 57.7C260 63.7 280 72.3 300 79.3C320 86.3 340 91.7 360 84.5C380 77.3 400 57.7 420 56.7C440 55.7 460 73.3 480 85.2C500 97 520 103 540 103.2C560 103.3 580 97.7 600 89.7C620 81.7 640 71.3 660 62.3C680 53.3 700 45.7 720 50.2C740 54.7 760 71.3 780 74.3C800 77.3 820 66.7 840 67.8C860 69 880 82 900 80.3C920 78.7 940 62.3 950 54.2L960 46L960 0L950 0C940 0 920 0 900 0C880 0 860 0 840 0C820 0 800 0 780 0C760 0 740 0 720 0C700 0 680 0 660 0C640 0 620 0 600 0C580 0 560 0 540 0C520 0 500 0 480 0C460 0 440 0 420 0C400 0 380 0 360 0C340 0 320 0 300 0C280 0 260 0 240 0C220 0 200 0 180 0C160 0 140 0 120 0C100 0 80 0 60 0C40 0 20 0 10 0L0 0Z" fill="#111827" stroke-linecap="round" stroke-linejoin="miter"></path></svg>